<?xml version="1.0" encoding="utf-8"?>
<svg version="1.1" xmlns:xlink="http://www.w3.org/1999/xlink" width="79px" height="60px" xmlns="http://www.w3.org/2000/svg">
  <g transform="matrix(1 0 0 1 -50 -100 )">
    <path d="M 77.5729032258064 8.28282828282829  C 78.5243010752688 9.22558922558923  79 10.3703703703704  79 11.7171717171717  C 79 13.0639730639731  78.5243010752688 14.2087542087542  77.5729032258064 15.1515151515152  L 40.6722580645161 51.7171717171717  L 33.7406451612903 58.5858585858586  C 32.789247311828 59.5286195286195  31.6339784946237 60  30.2748387096774 60  C 28.9156989247312 60  27.7604301075269 59.5286195286195  26.8090322580645 58.5858585858586  L 19.8774193548387 51.7171717171717  L 1.42709677419354 33.4343434343434  C 0.475698924731176 32.4915824915825  0 31.3468013468013  0 30  C 0 28.6531986531986  0.475698924731176 27.5084175084175  1.42709677419354 26.5656565656566  L 8.35870967741936 19.6969696969697  C 9.31010752688174 18.7542087542087  10.465376344086 18.2828282828283  11.8245161290323 18.2828282828283  C 13.1836559139785 18.2828282828283  14.3389247311828 18.7542087542087  15.2903225806452 19.6969696969697  L 30.2748387096774 34.5959595959596  L 63.7096774193548 1.41414141414143  C 64.6610752688172 0.471380471380485  65.8163440860215 0  67.1754838709678 0  C 68.534623655914 0  69.6898924731183 0.471380471380485  70.6412903225806 1.41414141414143  L 77.5729032258064 8.28282828282829  Z " fill-rule="nonzero" fill="#008000" stroke="none" transform="matrix(1 0 0 1 50 100 )" />
  </g>
</svg>