<?xml version="1.0" encoding="utf-8"?>
<svg version="1.1" xmlns:xlink="http://www.w3.org/1999/xlink" width="24px" height="25px" xmlns="http://www.w3.org/2000/svg">
  <g transform="matrix(1 0 0 1 -129 -173 )">
    <path d="M 19.4829545454545 11.5234375  C 19.5852272727273 11.6299715909091  19.6363636363636 11.7660984848485  19.6363636363636 11.9318181818182  L 19.6363636363636 13.0681818181818  C 19.6363636363636 13.2339015151515  19.5852272727273 13.3700284090909  19.4829545454545 13.4765625  C 19.3806818181818 13.5830965909091  19.25 13.6363636363637  19.0909090909091 13.6363636363637  L 4.90909090909091 13.6363636363637  C 4.75 13.6363636363637  4.61931818181819 13.5830965909091  4.51704545454545 13.4765625  C 4.41477272727273 13.3700284090909  4.36363636363636 13.2339015151515  4.36363636363636 13.0681818181818  L 4.36363636363636 11.9318181818182  C 4.36363636363636 11.7660984848485  4.41477272727273 11.6299715909091  4.51704545454545 11.5234375  C 4.61931818181819 11.4169034090909  4.75 11.3636363636363  4.90909090909091 11.3636363636363  L 19.0909090909091 11.3636363636363  C 19.25 11.3636363636363  19.3806818181818 11.4169034090909  19.4829545454545 11.5234375  Z M 21.0170454545455 21.8927556818182  C 21.5511363636364 21.3364109848485  21.8181818181818 20.6676136363637  21.8181818181818 19.8863636363637  L 21.8181818181818 5.11363636363635  C 21.8181818181818 4.33238636363635  21.5511363636364 3.6635890151515  21.0170454545455 3.10724431818181  C 20.4829545454545 2.55089962121212  19.8409090909091 2.27272727272725  19.0909090909091 2.27272727272725  L 4.90909090909091 2.27272727272725  C 4.15909090909091 2.27272727272725  3.51704545454545 2.55089962121212  2.98295454545455 3.10724431818181  C 2.44886363636364 3.6635890151515  2.18181818181818 4.33238636363635  2.18181818181818 5.11363636363635  L 2.18181818181818 19.8863636363637  C 2.18181818181818 20.6676136363637  2.44886363636364 21.3364109848485  2.98295454545455 21.8927556818182  C 3.51704545454545 22.4491003787879  4.15909090909091 22.7272727272727  4.90909090909091 22.7272727272727  L 19.0909090909091 22.7272727272727  C 19.8409090909091 22.7272727272727  20.4829545454545 22.4491003787879  21.0170454545455 21.8927556818182  Z M 22.5596590909091 1.50035511363635  C 23.5198863636364 2.50059185606059  24 3.70501893939394  24 5.11363636363635  L 24 19.8863636363637  C 24 21.2949810606061  23.5198863636364 22.4994081439394  22.5596590909091 23.4996448863637  C 21.5994318181818 24.4998816287879  20.4431818181818 25  19.0909090909091 25  L 4.90909090909091 25  C 3.55681818181818 25  2.40056818181818 24.4998816287879  1.44034090909091 23.4996448863637  C 0.48011363636364 22.4994081439394  0 21.2949810606061  0 19.8863636363637  L 0 5.11363636363635  C 0 3.70501893939394  0.48011363636364 2.50059185606059  1.44034090909091 1.50035511363635  C 2.40056818181818 0.500118371212125  3.55681818181818 0  4.90909090909091 0  L 19.0909090909091 0  C 20.4431818181818 0  21.5994318181818 0.500118371212125  22.5596590909091 1.50035511363635  Z " fill-rule="nonzero" fill="#333333" stroke="none" transform="matrix(1 0 0 1 129 173 )" />
  </g>
</svg>