<?xml version="1.0" encoding="utf-8"?>
<svg version="1.1" xmlns:xlink="http://www.w3.org/1999/xlink" width="25px" height="25px" xmlns="http://www.w3.org/2000/svg">
  <g transform="matrix(1 0 0 1 -219 -173 )">
    <path d="M 20.2947443181818 11.5234375  C 20.4012784090909 11.6299715909091  20.4545454545455 11.7660984848485  20.4545454545455 11.9318181818182  L 20.4545454545455 13.0681818181818  C 20.4545454545455 13.2339015151515  20.4012784090909 13.3700284090909  20.2947443181818 13.4765625  C 20.1882102272727 13.5830965909091  20.0520833333333 13.6363636363636  19.8863636363636 13.6363636363636  L 13.6363636363636 13.6363636363636  L 13.6363636363636 19.8863636363636  C 13.6363636363636 20.0520833333333  13.5830965909091 20.1882102272727  13.4765625 20.2947443181818  C 13.3700284090909 20.4012784090909  13.2339015151515 20.4545454545454  13.0681818181818 20.4545454545454  L 11.9318181818182 20.4545454545454  C 11.7660984848485 20.4545454545454  11.6299715909091 20.4012784090909  11.5234375 20.2947443181818  C 11.4169034090909 20.1882102272727  11.3636363636364 20.0520833333333  11.3636363636364 19.8863636363636  L 11.3636363636364 13.6363636363636  L 5.11363636363636 13.6363636363636  C 4.94791666666667 13.6363636363636  4.81178977272727 13.5830965909091  4.70525568181818 13.4765625  C 4.59872159090909 13.3700284090909  4.54545454545455 13.2339015151515  4.54545454545455 13.0681818181818  L 4.54545454545455 11.9318181818182  C 4.54545454545455 11.7660984848485  4.59872159090909 11.6299715909091  4.70525568181818 11.5234375  C 4.81178977272727 11.4169034090909  4.94791666666667 11.3636363636364  5.11363636363636 11.3636363636364  L 11.3636363636364 11.3636363636364  L 11.3636363636364 5.11363636363637  C 11.3636363636364 4.94791666666666  11.4169034090909 4.81178977272728  11.5234375 4.70525568181819  C 11.6299715909091 4.59872159090909  11.7660984848485 4.54545454545453  11.9318181818182 4.54545454545453  L 13.0681818181818 4.54545454545453  C 13.2339015151515 4.54545454545453  13.3700284090909 4.59872159090909  13.4765625 4.70525568181819  C 13.5830965909091 4.81178977272728  13.6363636363636 4.94791666666666  13.6363636363636 5.11363636363637  L 13.6363636363636 11.3636363636364  L 19.8863636363636 11.3636363636364  C 20.0520833333333 11.3636363636364  20.1882102272727 11.4169034090909  20.2947443181818 11.5234375  Z M 21.8927556818182 21.8927556818182  C 22.4491003787879 21.3364109848485  22.7272727272727 20.6676136363636  22.7272727272727 19.8863636363636  L 22.7272727272727 5.11363636363637  C 22.7272727272727 4.33238636363637  22.4491003787879 3.6635890151515  21.8927556818182 3.10724431818181  C 21.3364109848485 2.55089962121212  20.6676136363636 2.27272727272728  19.8863636363636 2.27272727272728  L 5.11363636363636 2.27272727272728  C 4.33238636363636 2.27272727272728  3.66358901515152 2.55089962121212  3.10724431818182 3.10724431818181  C 2.55089962121212 3.6635890151515  2.27272727272727 4.33238636363637  2.27272727272727 5.11363636363637  L 2.27272727272727 19.8863636363636  C 2.27272727272727 20.6676136363636  2.55089962121212 21.3364109848485  3.10724431818182 21.8927556818182  C 3.66358901515152 22.4491003787879  4.33238636363636 22.7272727272727  5.11363636363636 22.7272727272727  L 19.8863636363636 22.7272727272727  C 20.6676136363636 22.7272727272727  21.3364109848485 22.4491003787879  21.8927556818182 21.8927556818182  Z M 23.4996448863636 1.50035511363637  C 24.4998816287879 2.50059185606059  25 3.70501893939394  25 5.11363636363637  L 25 19.8863636363636  C 25 21.2949810606061  24.4998816287879 22.4994081439394  23.4996448863636 23.4996448863636  C 22.4994081439394 24.4998816287879  21.2949810606061 25  19.8863636363636 25  L 5.11363636363636 25  C 3.70501893939394 25  2.50059185606061 24.4998816287879  1.50035511363636 23.4996448863636  C 0.500118371212121 22.4994081439394  0 21.2949810606061  0 19.8863636363636  L 0 5.11363636363637  C 0 3.70501893939394  0.500118371212121 2.50059185606059  1.50035511363636 1.50035511363637  C 2.50059185606061 0.500118371212125  3.70501893939394 0  5.11363636363636 0  L 19.8863636363636 0  C 21.2949810606061 0  22.4994081439394 0.500118371212125  23.4996448863636 1.50035511363637  Z " fill-rule="nonzero" fill="#333333" stroke="none" transform="matrix(1 0 0 1 219 173 )" />
  </g>
</svg>